<mxfile host="app.diagrams.net" agent="Mozilla/5.0 (Windows NT 10.0; Win64; x64; rv:134.0) Gecko/20100101 Firefox/134.0" version="26.0.3">
  <diagram name="第 1 页" id="ziswSXfFYkskLQjyUjxE">
    <mxGraphModel dx="733" dy="175" grid="1" gridSize="10" guides="1" tooltips="1" connect="1" arrows="1" fold="1" page="1" pageScale="1" pageWidth="413" pageHeight="583" math="0" shadow="0">
      <root>
        <mxCell id="0" />
        <mxCell id="1" parent="0" />
        <mxCell id="HA0H8zfrOWwZvIa02Xvm-1" value="" style="rounded=0;whiteSpace=wrap;html=1;strokeColor=none;fillColor=none;" parent="1" vertex="1">
          <mxGeometry x="41" y="77" width="764" height="366" as="geometry" />
        </mxCell>
        <mxCell id="HA0H8zfrOWwZvIa02Xvm-2" value="" style="rounded=0;whiteSpace=wrap;html=1;fontSize=18;fillColor=none;fontFamily=Times New Roman;" parent="1" vertex="1">
          <mxGeometry x="71" y="140" width="204" height="272" as="geometry" />
        </mxCell>
        <mxCell id="HA0H8zfrOWwZvIa02Xvm-3" value="Driver" style="rounded=0;whiteSpace=wrap;html=1;fontSize=18;fillColor=#f5f5f5;fontColor=#333333;strokeColor=#666666;fontFamily=Times New Roman;" parent="1" vertex="1">
          <mxGeometry x="77" y="150" width="90" height="40" as="geometry" />
        </mxCell>
        <mxCell id="HA0H8zfrOWwZvIa02Xvm-4" value="Worker" style="rounded=0;whiteSpace=wrap;html=1;fontSize=18;fillColor=#f5f5f5;fontColor=#333333;strokeColor=#666666;fontFamily=Times New Roman;" parent="1" vertex="1">
          <mxGeometry x="177" y="150" width="90" height="40" as="geometry" />
        </mxCell>
        <mxCell id="HA0H8zfrOWwZvIa02Xvm-5" value="Scheduler" style="rounded=0;whiteSpace=wrap;html=1;fontSize=18;fontFamily=Times New Roman;" parent="1" vertex="1">
          <mxGeometry x="99" y="238" width="150" height="40" as="geometry" />
        </mxCell>
        <mxCell id="HA0H8zfrOWwZvIa02Xvm-6" value="Object Store" style="rounded=0;whiteSpace=wrap;html=1;fontSize=18;fontFamily=Times New Roman;" parent="1" vertex="1">
          <mxGeometry x="99" y="288" width="150" height="40" as="geometry" />
        </mxCell>
        <mxCell id="HA0H8zfrOWwZvIa02Xvm-7" value="Global Control Service" style="rounded=0;whiteSpace=wrap;html=1;fontSize=18;fillColor=#90C9E6;strokeColor=#36393d;fontFamily=Times New Roman;" parent="1" vertex="1">
          <mxGeometry x="77" y="350" width="190" height="50" as="geometry" />
        </mxCell>
        <mxCell id="HA0H8zfrOWwZvIa02Xvm-8" value="" style="rounded=0;whiteSpace=wrap;html=1;fillColor=none;fontSize=18;fontFamily=Times New Roman;" parent="1" vertex="1">
          <mxGeometry x="77" y="207" width="190" height="130" as="geometry" />
        </mxCell>
        <mxCell id="HA0H8zfrOWwZvIa02Xvm-9" value="Raylet" style="text;html=1;strokeColor=none;fillColor=none;align=center;verticalAlign=middle;whiteSpace=wrap;rounded=0;fontSize=18;fontFamily=Times New Roman;" parent="1" vertex="1">
          <mxGeometry x="142" y="207" width="60" height="30" as="geometry" />
        </mxCell>
        <mxCell id="HA0H8zfrOWwZvIa02Xvm-10" value="Head node" style="text;html=1;strokeColor=none;fillColor=none;align=center;verticalAlign=middle;whiteSpace=wrap;rounded=0;fontSize=18;fontFamily=Times New Roman;" parent="1" vertex="1">
          <mxGeometry x="71" y="100" width="99" height="30" as="geometry" />
        </mxCell>
        <mxCell id="HA0H8zfrOWwZvIa02Xvm-11" value="" style="rounded=0;whiteSpace=wrap;html=1;fontSize=18;fillColor=none;fontFamily=Times New Roman;" parent="1" vertex="1">
          <mxGeometry x="321" y="140" width="204" height="200" as="geometry" />
        </mxCell>
        <mxCell id="HA0H8zfrOWwZvIa02Xvm-12" value="Driver" style="rounded=0;whiteSpace=wrap;html=1;fontSize=18;fillColor=#f5f5f5;fontColor=#333333;strokeColor=#666666;fontFamily=Times New Roman;" parent="1" vertex="1">
          <mxGeometry x="327" y="148" width="90" height="40" as="geometry" />
        </mxCell>
        <mxCell id="HA0H8zfrOWwZvIa02Xvm-13" value="Worker" style="rounded=0;whiteSpace=wrap;html=1;fontSize=18;fillColor=#f5f5f5;fontColor=#333333;strokeColor=#666666;fontFamily=Times New Roman;" parent="1" vertex="1">
          <mxGeometry x="427" y="148" width="90" height="40" as="geometry" />
        </mxCell>
        <mxCell id="HA0H8zfrOWwZvIa02Xvm-14" value="Scheduler" style="rounded=0;whiteSpace=wrap;html=1;fontSize=18;fontFamily=Times New Roman;" parent="1" vertex="1">
          <mxGeometry x="349" y="236" width="150" height="40" as="geometry" />
        </mxCell>
        <mxCell id="HA0H8zfrOWwZvIa02Xvm-15" value="Object Store" style="rounded=0;whiteSpace=wrap;html=1;fontSize=18;fontFamily=Times New Roman;" parent="1" vertex="1">
          <mxGeometry x="349" y="286" width="150" height="40" as="geometry" />
        </mxCell>
        <mxCell id="HA0H8zfrOWwZvIa02Xvm-16" value="" style="rounded=0;whiteSpace=wrap;html=1;fillColor=none;fontSize=18;fontFamily=Times New Roman;" parent="1" vertex="1">
          <mxGeometry x="327" y="205" width="190" height="130" as="geometry" />
        </mxCell>
        <mxCell id="HA0H8zfrOWwZvIa02Xvm-17" value="Raylet" style="text;html=1;strokeColor=none;fillColor=none;align=center;verticalAlign=middle;whiteSpace=wrap;rounded=0;fontSize=18;fontFamily=Times New Roman;" parent="1" vertex="1">
          <mxGeometry x="392" y="205" width="60" height="30" as="geometry" />
        </mxCell>
        <mxCell id="HA0H8zfrOWwZvIa02Xvm-18" value="Worker node" style="text;html=1;strokeColor=none;fillColor=none;align=center;verticalAlign=middle;whiteSpace=wrap;rounded=0;fontSize=18;fontFamily=Times New Roman;" parent="1" vertex="1">
          <mxGeometry x="321" y="100" width="99" height="30" as="geometry" />
        </mxCell>
        <mxCell id="HA0H8zfrOWwZvIa02Xvm-19" value="" style="rounded=0;whiteSpace=wrap;html=1;fontSize=18;fillColor=none;fontFamily=Times New Roman;" parent="1" vertex="1">
          <mxGeometry x="571" y="140" width="204" height="200" as="geometry" />
        </mxCell>
        <mxCell id="HA0H8zfrOWwZvIa02Xvm-20" value="Driver" style="rounded=0;whiteSpace=wrap;html=1;fontSize=18;fillColor=#f5f5f5;fontColor=#333333;strokeColor=#666666;fontFamily=Times New Roman;" parent="1" vertex="1">
          <mxGeometry x="577" y="148" width="90" height="40" as="geometry" />
        </mxCell>
        <mxCell id="HA0H8zfrOWwZvIa02Xvm-21" value="Worker" style="rounded=0;whiteSpace=wrap;html=1;fontSize=18;fillColor=#f5f5f5;fontColor=#333333;strokeColor=#666666;fontFamily=Times New Roman;" parent="1" vertex="1">
          <mxGeometry x="677" y="148" width="90" height="40" as="geometry" />
        </mxCell>
        <mxCell id="HA0H8zfrOWwZvIa02Xvm-22" value="Scheduler" style="rounded=0;whiteSpace=wrap;html=1;fontSize=18;fontFamily=Times New Roman;" parent="1" vertex="1">
          <mxGeometry x="599" y="236" width="150" height="40" as="geometry" />
        </mxCell>
        <mxCell id="HA0H8zfrOWwZvIa02Xvm-23" value="Object Store" style="rounded=0;whiteSpace=wrap;html=1;fontSize=18;fontFamily=Times New Roman;" parent="1" vertex="1">
          <mxGeometry x="599" y="286" width="150" height="40" as="geometry" />
        </mxCell>
        <mxCell id="HA0H8zfrOWwZvIa02Xvm-24" value="" style="rounded=0;whiteSpace=wrap;html=1;fillColor=none;fontSize=18;fontFamily=Times New Roman;" parent="1" vertex="1">
          <mxGeometry x="577" y="205" width="190" height="130" as="geometry" />
        </mxCell>
        <mxCell id="HA0H8zfrOWwZvIa02Xvm-25" value="Raylet" style="text;html=1;strokeColor=none;fillColor=none;align=center;verticalAlign=middle;whiteSpace=wrap;rounded=0;fontSize=18;fontFamily=Times New Roman;" parent="1" vertex="1">
          <mxGeometry x="642" y="205" width="60" height="30" as="geometry" />
        </mxCell>
        <mxCell id="HA0H8zfrOWwZvIa02Xvm-26" value="Worker node" style="text;html=1;strokeColor=none;fillColor=none;align=center;verticalAlign=middle;whiteSpace=wrap;rounded=0;fontSize=18;fontFamily=Times New Roman;" parent="1" vertex="1">
          <mxGeometry x="571" y="100" width="99" height="30" as="geometry" />
        </mxCell>
      </root>
    </mxGraphModel>
  </diagram>
</mxfile>
